<svg width="161" height="35" viewBox="0 0 161 35" fill="none" xmlns="http://www.w3.org/2000/svg">
<path d="M0.25 5C0.25 2.37665 2.37665 0.25 5 0.25H156C158.623 0.25 160.75 2.37665 160.75 5V30C160.75 32.6234 158.623 34.75 156 34.75H5C2.37665 34.75 0.25 32.6234 0.25 30V5Z" fill="#141921" stroke="#242830" stroke-width="0.5"/>
<path d="M31.1985 19.57L30.3075 17.203C30.2355 17.02 30.162 16.7875 30.087 16.5055C30.054 16.6465 30.018 16.777 29.979 16.897C29.94 17.014 29.904 17.1175 29.871 17.2075L28.98 19.57H31.1985ZM33.192 22H32.3775C32.2845 22 32.2095 21.9775 32.1525 21.9325C32.0955 21.8845 32.052 21.826 32.022 21.757L31.482 20.326H28.692L28.152 21.757C28.128 21.817 28.086 21.8725 28.026 21.9235C27.966 21.9745 27.891 22 27.801 22H26.9865L29.556 15.52H30.6225L33.192 22ZM39.6362 18.76C39.6362 19.24 39.5582 19.6795 39.4022 20.0785C39.2462 20.4745 39.0257 20.815 38.7407 21.1C38.4587 21.385 38.1182 21.607 37.7192 21.766C37.3232 21.922 36.8822 22 36.3962 22H33.9482V15.52H36.3962C36.8822 15.52 37.3232 15.5995 37.7192 15.7585C38.1182 15.9145 38.4587 16.135 38.7407 16.42C39.0257 16.705 39.2462 17.047 39.4022 17.446C39.5582 17.842 39.6362 18.28 39.6362 18.76ZM38.5607 18.76C38.5607 18.388 38.5097 18.0535 38.4077 17.7565C38.3087 17.4595 38.1647 17.209 37.9757 17.005C37.7897 16.801 37.5632 16.645 37.2962 16.537C37.0292 16.426 36.7292 16.3705 36.3962 16.3705H35.0057V21.1495H36.3962C36.7292 21.1495 37.0292 21.0955 37.2962 20.9875C37.5632 20.8795 37.7897 20.7235 37.9757 20.5195C38.1647 20.3125 38.3087 20.062 38.4077 19.768C38.5097 19.471 38.5607 19.135 38.5607 18.76ZM46.4829 18.76C46.4829 19.24 46.4049 19.6795 46.2489 20.0785C46.0929 20.4745 45.8724 20.815 45.5874 21.1C45.3054 21.385 44.9649 21.607 44.5659 21.766C44.1699 21.922 43.7289 22 43.2429 22H40.7949V15.52H43.2429C43.7289 15.52 44.1699 15.5995 44.5659 15.7585C44.9649 15.9145 45.3054 16.135 45.5874 16.42C45.8724 16.705 46.0929 17.047 46.2489 17.446C46.4049 17.842 46.4829 18.28 46.4829 18.76ZM45.4074 18.76C45.4074 18.388 45.3564 18.0535 45.2544 17.7565C45.1554 17.4595 45.0114 17.209 44.8224 17.005C44.6364 16.801 44.4099 16.645 44.1429 16.537C43.8759 16.426 43.5759 16.3705 43.2429 16.3705H41.8524V21.1495H43.2429C43.5759 21.1495 43.8759 21.0955 44.1429 20.9875C44.4099 20.8795 44.6364 20.7235 44.8224 20.5195C45.0114 20.3125 45.1554 20.062 45.2544 19.768C45.3564 19.471 45.4074 19.135 45.4074 18.76ZM54.3828 20.5555C54.4398 20.5555 54.4893 20.578 54.5313 20.623L54.9498 21.0775C54.6858 21.3955 54.3618 21.6415 53.9778 21.8155C53.5938 21.9865 53.1348 22.072 52.6008 22.072C52.1268 22.072 51.6978 21.991 51.3138 21.829C50.9328 21.664 50.6073 21.436 50.3373 21.145C50.0673 20.851 49.8588 20.5015 49.7118 20.0965C49.5678 19.6915 49.4958 19.246 49.4958 18.76C49.4958 18.274 49.5723 17.8285 49.7253 17.4235C49.8813 17.0155 50.0988 16.666 50.3778 16.375C50.6598 16.081 50.9958 15.853 51.3858 15.691C51.7788 15.529 52.2108 15.448 52.6818 15.448C53.1498 15.448 53.5623 15.5245 53.9193 15.6775C54.2793 15.8275 54.5913 16.0285 54.8553 16.2805L54.5088 16.771C54.4848 16.804 54.4563 16.8325 54.4233 16.8565C54.3903 16.8805 54.3453 16.8925 54.2883 16.8925C54.2283 16.8925 54.1593 16.8655 54.0813 16.8115C54.0063 16.7545 53.9088 16.693 53.7888 16.627C53.6718 16.558 53.5233 16.4965 53.3433 16.4425C53.1663 16.3855 52.9443 16.357 52.6773 16.357C52.3683 16.357 52.0848 16.411 51.8268 16.519C51.5688 16.627 51.3468 16.7845 51.1608 16.9915C50.9748 17.1985 50.8293 17.4505 50.7243 17.7475C50.6223 18.0445 50.5713 18.382 50.5713 18.76C50.5713 19.141 50.6253 19.4815 50.7333 19.7815C50.8413 20.0785 50.9898 20.3305 51.1788 20.5375C51.3678 20.7415 51.5898 20.8975 51.8448 21.0055C52.0998 21.1135 52.3743 21.1675 52.6683 21.1675C52.8483 21.1675 53.0088 21.1585 53.1498 21.1405C53.2938 21.1195 53.4258 21.088 53.5458 21.046C53.6658 21.001 53.7783 20.9455 53.8833 20.8795C53.9913 20.8135 54.0978 20.7325 54.2028 20.6365C54.2628 20.5825 54.3228 20.5555 54.3828 20.5555ZM61.816 18.76C61.816 19.24 61.738 19.6825 61.582 20.0875C61.426 20.4925 61.2055 20.842 60.9205 21.136C60.6385 21.427 60.298 21.655 59.899 21.82C59.503 21.985 59.062 22.0675 58.576 22.0675C58.093 22.0675 57.652 21.985 57.253 21.82C56.857 21.655 56.5165 21.427 56.2315 21.136C55.9465 20.842 55.726 20.4925 55.57 20.0875C55.414 19.6825 55.336 19.24 55.336 18.76C55.336 18.28 55.414 17.8375 55.57 17.4325C55.726 17.0275 55.9465 16.678 56.2315 16.384C56.5165 16.09 56.857 15.8605 57.253 15.6955C57.652 15.5305 58.093 15.448 58.576 15.448C59.062 15.448 59.503 15.5305 59.899 15.6955C60.298 15.8605 60.6385 16.09 60.9205 16.384C61.2055 16.678 61.426 17.0275 61.582 17.4325C61.738 17.8375 61.816 18.28 61.816 18.76ZM60.7405 18.76C60.7405 18.388 60.6895 18.0535 60.5875 17.7565C60.4885 17.4595 60.3445 17.2075 60.1555 17.0005C59.9695 16.7935 59.743 16.6345 59.476 16.5235C59.209 16.4125 58.909 16.357 58.576 16.357C58.246 16.357 57.9475 16.4125 57.6805 16.5235C57.4135 16.6345 57.1855 16.7935 56.9965 17.0005C56.8075 17.2075 56.662 17.4595 56.56 17.7565C56.458 18.0535 56.407 18.388 56.407 18.76C56.407 19.135 56.458 19.471 56.56 19.768C56.662 20.065 56.8075 20.317 56.9965 20.524C57.1855 20.728 57.4135 20.8855 57.6805 20.9965C57.9475 21.1045 58.246 21.1585 58.576 21.1585C58.909 21.1585 59.209 21.1045 59.476 20.9965C59.743 20.8855 59.9695 20.728 60.1555 20.524C60.3445 20.317 60.4885 20.065 60.5875 19.768C60.6895 19.471 60.7405 19.135 60.7405 18.76ZM64.0272 22H62.9697V15.52H64.0272V22ZM70.9265 15.52V22H70.391C70.31 22 70.241 21.9865 70.184 21.9595C70.127 21.9295 70.073 21.8815 70.022 21.8155L66.4625 17.2435C66.4715 17.3305 66.4775 17.4175 66.4805 17.5045C66.4865 17.5885 66.4895 17.6665 66.4895 17.7385V22H65.5625V15.52H66.1115C66.1565 15.52 66.194 15.523 66.224 15.529C66.257 15.532 66.287 15.5395 66.314 15.5515C66.341 15.5635 66.3665 15.5815 66.3905 15.6055C66.4145 15.6295 66.44 15.6595 66.467 15.6955L70.031 20.272C70.022 20.179 70.0145 20.0875 70.0085 19.9975C70.0055 19.9075 70.004 19.8235 70.004 19.7455V15.52H70.9265Z" fill="#BEB4A8"/>
<path d="M12.385 19.6002H15.55V22.7652H17.44V19.6002H20.605V17.7102H17.44V14.5452H15.55V17.7102H12.385V19.6002Z" fill="#85633E"/>
<line x1="86.5" y1="13" x2="86.5" y2="26" stroke="#403D3A"/>
<path d="M122.458 18.76C122.458 19.24 122.38 19.6795 122.224 20.0785C122.068 20.4745 121.847 20.815 121.562 21.1C121.28 21.385 120.94 21.607 120.541 21.766C120.145 21.922 119.704 22 119.218 22H116.77V15.52H119.218C119.704 15.52 120.145 15.5995 120.541 15.7585C120.94 15.9145 121.28 16.135 121.562 16.42C121.847 16.705 122.068 17.047 122.224 17.446C122.38 17.842 122.458 18.28 122.458 18.76ZM121.382 18.76C121.382 18.388 121.331 18.0535 121.229 17.7565C121.13 17.4595 120.986 17.209 120.797 17.005C120.611 16.801 120.385 16.645 120.118 16.537C119.851 16.426 119.551 16.3705 119.218 16.3705H117.827V21.1495H119.218C119.551 21.1495 119.851 21.0955 120.118 20.9875C120.385 20.8795 120.611 20.7235 120.797 20.5195C120.986 20.3125 121.13 20.062 121.229 19.768C121.331 19.471 121.382 19.135 121.382 18.76ZM127.662 21.1495L127.657 22H123.616V15.52H127.657V16.3705H124.674V18.3235H127.059V19.147H124.674V21.1495H127.662ZM132.546 21.118V22H128.802V15.52H129.855V21.118H132.546ZM137.497 21.1495L137.492 22H133.451V15.52H137.492V16.3705H134.509V18.3235H136.894V19.147H134.509V21.1495H137.497ZM143.096 16.3975H141.076V22H140.027V16.3975H138.002V15.52H143.096V16.3975ZM148.044 21.1495L148.039 22H143.998V15.52H148.039V16.3705H145.056V18.3235H147.441V19.147H145.056V21.1495H148.044Z" fill="#BEB4A8"/>
<path d="M106.171 16.7071C105.986 16.7071 105.837 16.8567 105.837 17.0413V21.4676C105.837 21.652 105.986 21.8017 106.171 21.8017C106.355 21.8017 106.505 21.652 106.505 21.4676V17.0413C106.505 16.8567 106.355 16.7071 106.171 16.7071Z" fill="#85633E" stroke="#85633E" stroke-width="0.2"/>
<path d="M103.405 16.7071C103.221 16.7071 103.071 16.8567 103.071 17.0413V21.4676C103.071 21.652 103.22 21.8017 103.405 21.8017C103.59 21.8017 103.739 21.652 103.739 21.4676V17.0413C103.739 16.8567 103.59 16.7071 103.405 16.7071Z" fill="#85633E" stroke="#85633E" stroke-width="0.2"/>
<path d="M102.571 23.2841H102.571C102.227 23.2835 101.898 23.1414 101.662 22.891C101.425 22.6415 101.291 22.2962 101.291 21.9312V16.235C100.851 16.0808 100.573 15.6373 100.634 15.1678L100.634 15.1678C100.699 14.6725 101.121 14.302 101.62 14.3019H101.62H102.719V14.1094V14.1092H102.819C102.818 13.863 102.915 13.6266 103.09 13.4527L102.571 23.2841ZM102.571 23.2841H107.002L107.002 23.2841C107.346 23.2835 107.675 23.1414 107.911 22.891C108.149 22.6415 108.282 22.2962 108.282 21.9312V16.235C108.722 16.0808 109 15.6373 108.939 15.1678L108.939 15.1678C108.874 14.6725 108.452 14.302 107.953 14.3019H107.953H106.854V14.1095V14.1092H106.754L102.571 23.2841ZM103.747 13.0841V13.1841L106.483 13.4527C106.309 13.2789 106.072 13.1821 105.826 13.1841V13.0841H105.826H103.747H103.747ZM103.388 14.1092H103.388L103.388 14.1079C103.386 14.013 103.424 13.9217 103.491 13.8547L103.491 13.8546C103.558 13.7877 103.65 13.7508 103.745 13.7525L103.745 13.7525H103.747H105.826V13.7525L105.828 13.7525C105.923 13.7508 106.015 13.7877 106.082 13.8546L106.082 13.8547C106.149 13.9216 106.187 14.013 106.185 14.1079L106.185 14.1079V14.1092V14.3019H103.388V14.1092ZM107.002 22.6157H102.571C102.235 22.6157 101.959 22.3259 101.959 21.9312V16.2818H107.614V21.9312C107.614 22.3259 107.338 22.6157 107.002 22.6157ZM101.62 14.9703H107.953C108.13 14.9703 108.274 15.1142 108.274 15.2918C108.274 15.4694 108.13 15.6134 107.953 15.6134H101.62C101.443 15.6134 101.299 15.4694 101.299 15.2918C101.299 15.1142 101.443 14.9703 101.62 14.9703Z" fill="#85633E" stroke="#85633E" stroke-width="0.2"/>
<path d="M104.788 16.7071C104.603 16.7071 104.454 16.8567 104.454 17.0413V21.4676C104.454 21.652 104.603 21.8017 104.788 21.8017C104.973 21.8017 105.122 21.652 105.122 21.4676V17.0413C105.122 16.8567 104.972 16.7071 104.788 16.7071Z" fill="#85633E" stroke="#85633E" stroke-width="0.2"/>
</svg>
