<svg width="129" height="16" viewBox="0 0 129 16" fill="none" xmlns="http://www.w3.org/2000/svg">
<path d="M105.66 4.085C105.62 4.155 105.577 4.20667 105.53 4.24C105.487 4.27 105.432 4.285 105.365 4.285C105.295 4.285 105.218 4.26 105.135 4.21C105.055 4.15667 104.958 4.09833 104.845 4.035C104.732 3.97167 104.598 3.915 104.445 3.865C104.295 3.81167 104.117 3.785 103.91 3.785C103.723 3.785 103.56 3.80833 103.42 3.855C103.28 3.89833 103.162 3.96 103.065 4.04C102.972 4.12 102.902 4.21667 102.855 4.33C102.808 4.44 102.785 4.56167 102.785 4.695C102.785 4.865 102.832 5.00667 102.925 5.12C103.022 5.23333 103.148 5.33 103.305 5.41C103.462 5.49 103.64 5.56167 103.84 5.625C104.04 5.68833 104.245 5.75667 104.455 5.83C104.665 5.9 104.87 5.98333 105.07 6.08C105.27 6.17333 105.448 6.29333 105.605 6.44C105.762 6.58333 105.887 6.76 105.98 6.97C106.077 7.18 106.125 7.435 106.125 7.735C106.125 8.06167 106.068 8.36833 105.955 8.655C105.845 8.93833 105.682 9.18667 105.465 9.4C105.252 9.61 104.99 9.77667 104.68 9.9C104.37 10.02 104.015 10.08 103.615 10.08C103.385 10.08 103.158 10.0567 102.935 10.01C102.712 9.96667 102.497 9.90333 102.29 9.82C102.087 9.73667 101.895 9.63667 101.715 9.52C101.535 9.40333 101.375 9.27333 101.235 9.13L101.63 8.485C101.663 8.43833 101.707 8.4 101.76 8.37C101.813 8.33667 101.87 8.32 101.93 8.32C102.013 8.32 102.103 8.355 102.2 8.425C102.297 8.49167 102.412 8.56667 102.545 8.65C102.678 8.73333 102.833 8.81 103.01 8.88C103.19 8.94667 103.405 8.98 103.655 8.98C104.038 8.98 104.335 8.89 104.545 8.71C104.755 8.52667 104.86 8.265 104.86 7.925C104.86 7.735 104.812 7.58 104.715 7.46C104.622 7.34 104.497 7.24 104.34 7.16C104.183 7.07667 104.005 7.00667 103.805 6.95C103.605 6.89333 103.402 6.83167 103.195 6.765C102.988 6.69833 102.785 6.61833 102.585 6.525C102.385 6.43167 102.207 6.31 102.05 6.16C101.893 6.01 101.767 5.82333 101.67 5.6C101.577 5.37333 101.53 5.095 101.53 4.765C101.53 4.50167 101.582 4.245 101.685 3.995C101.792 3.745 101.945 3.52333 102.145 3.33C102.345 3.13667 102.592 2.98167 102.885 2.865C103.178 2.74833 103.515 2.69 103.895 2.69C104.322 2.69 104.715 2.75667 105.075 2.89C105.435 3.02333 105.742 3.21 105.995 3.45L105.66 4.085ZM108.648 3.84V5.845H111.178V6.88H108.648V8.925H111.858V10H107.298V2.77H111.858V3.84H108.648ZM119.145 2.77V10H118.455C118.348 10 118.258 9.98333 118.185 9.95C118.115 9.91333 118.047 9.85333 117.98 9.77L114.205 4.95C114.225 5.17 114.235 5.37333 114.235 5.56V10H113.05V2.77H113.755C113.812 2.77 113.86 2.77333 113.9 2.78C113.943 2.78333 113.98 2.79333 114.01 2.81C114.043 2.82333 114.075 2.845 114.105 2.875C114.135 2.90167 114.168 2.93833 114.205 2.985L117.995 7.825C117.985 7.70833 117.977 7.59333 117.97 7.48C117.963 7.36667 117.96 7.26167 117.96 7.165V2.77H119.145ZM127.175 6.385C127.175 6.915 127.087 7.40167 126.91 7.845C126.734 8.28833 126.485 8.67 126.165 8.99C125.845 9.31 125.46 9.55833 125.01 9.735C124.56 9.91167 124.06 10 123.51 10H120.755V2.77H123.51C124.06 2.77 124.56 2.86 125.01 3.04C125.46 3.21667 125.845 3.465 126.165 3.785C126.485 4.10167 126.734 4.48167 126.91 4.925C127.087 5.36833 127.175 5.855 127.175 6.385ZM125.795 6.385C125.795 5.98833 125.742 5.63333 125.635 5.32C125.532 5.00333 125.38 4.73667 125.18 4.52C124.984 4.3 124.744 4.13167 124.46 4.015C124.18 3.89833 123.864 3.84 123.51 3.84H122.105V8.93H123.51C123.864 8.93 124.18 8.87167 124.46 8.755C124.744 8.63833 124.984 8.47167 125.18 8.255C125.38 8.035 125.532 7.76833 125.635 7.455C125.742 7.13833 125.795 6.78167 125.795 6.385Z" fill="#CAA276"/>
<path d="M89.9641 7.10497L89.9469 9.31543C89.9628 9.6635 90.2554 9.93593 90.587 9.92811L90.5873 9.92811C90.9408 9.92018 91.2103 9.63886 91.203 9.28537L91.203 9.28537L91.203 9.28224L91.1687 4.9511C91.161 4.61508 90.8726 4.33968 90.5375 4.34759L90.5375 4.34765L90.5321 4.34766L86.0554 4.35624C85.7031 4.36536 85.4348 4.64621 85.442 4.99891C85.4489 5.33559 85.7377 5.61178 86.0732 5.60387L86.0732 5.60367L86.0832 5.60384L88.4546 5.6425L89.0273 5.65184L88.6311 6.06541L83.6089 11.3077C83.3654 11.5619 83.3717 11.957 83.6178 12.1928C83.8673 12.4317 84.2712 12.4232 84.5115 12.1724L89.5336 6.93008L89.9691 6.47555L89.9641 7.10497Z" fill="#CAA276" stroke="#161C23" stroke-width="0.5"/>
<path d="M4.46109 9.41289L4.52574 7.20331C4.5173 6.85497 4.23057 6.57633 3.89891 6.57704L3.89862 6.57704C3.54506 6.57738 3.26958 6.85286 3.26923 7.20642L3.26925 7.20642L3.26921 7.20956L3.21066 11.5404C3.21114 11.8765 3.49356 12.1581 3.82872 12.1573L3.82871 12.1573L3.83413 12.1574L8.30999 12.2448C8.66241 12.2432 8.93666 11.9682 8.937 11.6154C8.93733 11.2787 8.65458 10.9964 8.31894 10.9971L8.31894 10.9973L8.30898 10.9969L5.93892 10.9074L5.36659 10.8858L5.77158 10.4808L10.905 5.34738C11.1539 5.09847 11.1561 4.70337 10.915 4.46236C10.6708 4.21807 10.2668 4.21797 10.0212 4.46356L4.88776 9.59698L4.44268 10.0421L4.46109 9.41289Z" fill="#8484F1" stroke="#161C23" stroke-width="0.5"/>
<path d="M22.9949 7.21098C23.2482 7.21098 23.4682 7.17931 23.6549 7.11598C23.8449 7.05264 23.9999 6.96598 24.1199 6.85598C24.2432 6.74264 24.3349 6.60931 24.3949 6.45598C24.4549 6.30264 24.4849 6.13431 24.4849 5.95098C24.4849 5.58431 24.3632 5.30264 24.1199 5.10598C23.8799 4.90931 23.5115 4.81098 23.0149 4.81098H22.1549V7.21098H22.9949ZM26.4549 11.001H25.2399C25.0099 11.001 24.8432 10.911 24.7399 10.731L23.2199 8.41598C23.1632 8.32931 23.0999 8.26764 23.0299 8.23098C22.9632 8.19431 22.8632 8.17598 22.7299 8.17598H22.1549V11.001H20.8099V3.77098H23.0149C23.5049 3.77098 23.9249 3.82264 24.2749 3.92598C24.6282 4.02598 24.9165 4.16764 25.1399 4.35098C25.3665 4.53431 25.5332 4.75431 25.6399 5.01098C25.7465 5.26431 25.7999 5.54431 25.7999 5.85098C25.7999 6.09431 25.7632 6.32431 25.6899 6.54098C25.6199 6.75764 25.5165 6.95431 25.3799 7.13098C25.2465 7.30764 25.0799 7.46264 24.8799 7.59598C24.6832 7.72931 24.4582 7.83431 24.2049 7.91098C24.2915 7.96098 24.3715 8.02098 24.4449 8.09098C24.5182 8.15764 24.5849 8.23764 24.6449 8.33098L26.4549 11.001ZM28.5857 4.84098V6.84598H31.1157V7.88098H28.5857V9.92598H31.7957V11.001H27.2357V3.77098H31.7957V4.84098H28.5857ZM37.7964 9.29598C37.8697 9.29598 37.9347 9.32431 37.9914 9.38098L38.5214 9.95598C38.228 10.3193 37.8664 10.5976 37.4364 10.791C37.0097 10.9843 36.4964 11.081 35.8964 11.081C35.3597 11.081 34.8764 10.9893 34.4464 10.806C34.0197 10.6226 33.6547 10.3676 33.3514 10.041C33.048 9.71431 32.8147 9.32431 32.6514 8.87098C32.4914 8.41764 32.4114 7.92264 32.4114 7.38598C32.4114 6.84264 32.498 6.34598 32.6714 5.89598C32.8447 5.44264 33.088 5.05264 33.4014 4.72598C33.718 4.39931 34.0947 4.14598 34.5314 3.96598C34.968 3.78264 35.4514 3.69098 35.9814 3.69098C36.508 3.69098 36.9747 3.77764 37.3814 3.95098C37.7914 4.12431 38.1397 4.35098 38.4264 4.63098L37.9764 5.25598C37.9497 5.29598 37.9147 5.33098 37.8714 5.36098C37.8314 5.39098 37.7747 5.40598 37.7014 5.40598C37.6514 5.40598 37.5997 5.39264 37.5464 5.36598C37.493 5.33598 37.4347 5.30098 37.3714 5.26098C37.308 5.21764 37.2347 5.17098 37.1514 5.12098C37.068 5.07098 36.9714 5.02598 36.8614 4.98598C36.7514 4.94264 36.623 4.90764 36.4764 4.88098C36.333 4.85098 36.1664 4.83598 35.9764 4.83598C35.653 4.83598 35.3564 4.89431 35.0864 5.01098C34.8197 5.12431 34.5897 5.29098 34.3964 5.51098C34.203 5.72764 34.053 5.99431 33.9464 6.31098C33.8397 6.62431 33.7864 6.98264 33.7864 7.38598C33.7864 7.79264 33.843 8.15431 33.9564 8.47098C34.073 8.78764 34.2297 9.05431 34.4264 9.27098C34.623 9.48764 34.8547 9.65431 35.1214 9.77098C35.388 9.88431 35.6747 9.94098 35.9814 9.94098C36.1647 9.94098 36.3297 9.93098 36.4764 9.91098C36.6264 9.89098 36.763 9.85931 36.8864 9.81598C37.013 9.77264 37.1314 9.71764 37.2414 9.65098C37.3547 9.58098 37.4664 9.49598 37.5764 9.39598C37.6097 9.36598 37.6447 9.34264 37.6814 9.32598C37.718 9.30598 37.7564 9.29598 37.7964 9.29598ZM40.7927 4.84098V6.84598H43.3227V7.88098H40.7927V9.92598H44.0027V11.001H39.4427V3.77098H44.0027V4.84098H40.7927ZM46.5446 11.001H45.1946V3.77098H46.5446V11.001ZM54.3584 3.77098L51.4384 11.001H50.2234L47.3034 3.77098H48.3834C48.5001 3.77098 48.5951 3.79931 48.6684 3.85598C48.7417 3.91264 48.7967 3.98598 48.8334 4.07598L50.5384 8.48598C50.5951 8.62931 50.6484 8.78764 50.6984 8.96098C50.7517 9.13098 50.8017 9.30931 50.8484 9.49598C50.8884 9.30931 50.9317 9.13098 50.9784 8.96098C51.0251 8.78764 51.0767 8.62931 51.1334 8.48598L52.8284 4.07598C52.8551 3.99931 52.9067 3.92931 52.9834 3.86598C53.0634 3.80264 53.1601 3.77098 53.2734 3.77098H54.3584ZM56.4568 4.84098V6.84598H58.9868V7.88098H56.4568V9.92598H59.6668V11.001H55.1068V3.77098H59.6668V4.84098H56.4568Z" fill="#8484F1"/>
<line x1="73.5039" y1="2" x2="73.5039" y2="15" stroke="#222D3A"/>
</svg>
