<svg width="220" height="35" viewBox="0 0 220 35" fill="none" xmlns="http://www.w3.org/2000/svg">
<path d="M0.25 5C0.25 2.37665 2.37665 0.25 5 0.25H215C217.623 0.25 219.75 2.37665 219.75 5V30C219.75 32.6234 217.623 34.75 215 34.75H5C2.37664 34.75 0.25 32.6234 0.25 30V5Z" fill="#141921" stroke="#343231" stroke-width="0.5"/>
<path d="M42.62 16.03C42.5833 16.09 42.545 16.135 42.505 16.165C42.465 16.1917 42.415 16.205 42.355 16.205C42.2917 16.205 42.22 16.1783 42.14 16.125C42.0633 16.0717 41.9667 16.0133 41.85 15.95C41.7367 15.8833 41.6017 15.8233 41.445 15.77C41.2883 15.7133 41.1017 15.685 40.885 15.685C40.685 15.685 40.5083 15.71 40.355 15.76C40.205 15.81 40.0783 15.88 39.975 15.97C39.8717 16.06 39.7933 16.1667 39.74 16.29C39.69 16.41 39.665 16.5417 39.665 16.685C39.665 16.8683 39.7133 17.0217 39.81 17.145C39.9067 17.265 40.0333 17.3683 40.19 17.455C40.35 17.5417 40.5317 17.6183 40.735 17.685C40.9383 17.7483 41.145 17.8167 41.355 17.89C41.5683 17.9633 41.7767 18.0467 41.98 18.14C42.1833 18.2333 42.3633 18.3517 42.52 18.495C42.68 18.6383 42.8083 18.8133 42.905 19.02C43.0017 19.2267 43.05 19.4783 43.05 19.775C43.05 20.095 42.995 20.395 42.885 20.675C42.775 20.955 42.615 21.2 42.405 21.41C42.1983 21.6167 41.9417 21.78 41.635 21.9C41.3317 22.02 40.985 22.08 40.595 22.08C40.365 22.08 40.14 22.0567 39.92 22.01C39.7033 21.9667 39.495 21.905 39.295 21.825C39.0983 21.7417 38.9133 21.6417 38.74 21.525C38.5667 21.4083 38.4117 21.2783 38.275 21.135L38.615 20.575C38.645 20.5283 38.6833 20.4917 38.73 20.465C38.7767 20.4383 38.8283 20.425 38.885 20.425C38.9617 20.425 39.0467 20.4617 39.14 20.535C39.2333 20.605 39.345 20.6833 39.475 20.77C39.6083 20.8533 39.7683 20.9317 39.955 21.005C40.1417 21.075 40.365 21.11 40.625 21.11C41.0483 21.11 41.375 21.0067 41.605 20.8C41.8383 20.5933 41.955 20.3083 41.955 19.945C41.955 19.7417 41.9067 19.5767 41.81 19.45C41.7133 19.32 41.585 19.2117 41.425 19.125C41.2683 19.0383 41.0883 18.965 40.885 18.905C40.6817 18.845 40.475 18.7817 40.265 18.715C40.055 18.645 39.8483 18.565 39.645 18.475C39.4417 18.3817 39.26 18.2617 39.1 18.115C38.9433 17.965 38.8167 17.7817 38.72 17.565C38.6233 17.345 38.575 17.0717 38.575 16.745C38.575 16.485 38.625 16.2333 38.725 15.99C38.8283 15.7467 38.9767 15.5317 39.17 15.345C39.3667 15.155 39.6083 15.0033 39.895 14.89C40.1817 14.7767 40.5083 14.72 40.875 14.72C41.2883 14.72 41.6667 14.785 42.01 14.915C42.3567 15.045 42.655 15.23 42.905 15.47L42.62 16.03ZM47.4395 18.875C47.4395 18.695 47.4128 18.5283 47.3595 18.375C47.3095 18.2183 47.2345 18.0833 47.1345 17.97C47.0345 17.8533 46.9095 17.7633 46.7595 17.7C46.6128 17.6333 46.4428 17.6 46.2495 17.6C45.8595 17.6 45.5528 17.7117 45.3295 17.935C45.1061 18.1583 44.9645 18.4717 44.9045 18.875H47.4395ZM44.8745 19.535C44.8878 19.825 44.9328 20.0767 45.0095 20.29C45.0861 20.5 45.1878 20.675 45.3145 20.815C45.4445 20.955 45.5978 21.06 45.7745 21.13C45.9545 21.1967 46.1545 21.23 46.3745 21.23C46.5845 21.23 46.7661 21.2067 46.9195 21.16C47.0728 21.11 47.2061 21.0567 47.3195 21C47.4328 20.94 47.5295 20.8867 47.6095 20.84C47.6895 20.79 47.7628 20.765 47.8295 20.765C47.9161 20.765 47.9828 20.7983 48.0295 20.865L48.3345 21.26C48.2078 21.41 48.0645 21.5367 47.9045 21.64C47.7445 21.7433 47.5745 21.8283 47.3945 21.895C47.2145 21.9583 47.0295 22.0033 46.8395 22.03C46.6495 22.06 46.4645 22.075 46.2845 22.075C45.9311 22.075 45.6028 22.0167 45.2995 21.9C44.9995 21.78 44.7378 21.605 44.5145 21.375C44.2945 21.145 44.1211 20.86 43.9945 20.52C43.8711 20.18 43.8095 19.7883 43.8095 19.345C43.8095 18.9917 43.8645 18.6617 43.9745 18.355C44.0878 18.0483 44.2478 17.7817 44.4545 17.555C44.6645 17.3283 44.9178 17.15 45.2145 17.02C45.5145 16.8867 45.8528 16.82 46.2295 16.82C46.5428 16.82 46.8328 16.8717 47.0995 16.975C47.3661 17.075 47.5961 17.2233 47.7895 17.42C47.9828 17.6167 48.1328 17.8583 48.2395 18.145C48.3495 18.4283 48.4045 18.7517 48.4045 19.115C48.4045 19.2817 48.3861 19.3933 48.3495 19.45C48.3128 19.5067 48.2461 19.535 48.1495 19.535H44.8745ZM52.132 19.77C51.7486 19.7833 51.4253 19.815 51.162 19.865C50.8986 19.9117 50.6853 19.9733 50.522 20.05C50.3586 20.1233 50.2403 20.2117 50.167 20.315C50.097 20.4183 50.062 20.5317 50.062 20.655C50.062 20.775 50.0803 20.8783 50.117 20.965C50.157 21.0483 50.2103 21.1183 50.277 21.175C50.347 21.2283 50.427 21.2683 50.517 21.295C50.6103 21.3183 50.712 21.33 50.822 21.33C51.102 21.33 51.342 21.2783 51.542 21.175C51.7453 21.0683 51.942 20.915 52.132 20.715V19.77ZM49.282 17.61C49.8586 17.0733 50.5453 16.805 51.342 16.805C51.6353 16.805 51.8953 16.8533 52.122 16.95C52.352 17.0433 52.5436 17.1767 52.697 17.35C52.8536 17.5233 52.972 17.73 53.052 17.97C53.1353 18.2067 53.177 18.47 53.177 18.76V22H52.697C52.5936 22 52.5153 21.985 52.462 21.955C52.4086 21.9217 52.3636 21.8567 52.327 21.76L52.222 21.345C52.092 21.4617 51.9636 21.5667 51.837 21.66C51.7103 21.75 51.5786 21.8267 51.442 21.89C51.3086 21.9533 51.1636 22 51.007 22.03C50.8536 22.0633 50.6836 22.08 50.497 22.08C50.2903 22.08 50.097 22.0517 49.917 21.995C49.7403 21.9383 49.587 21.8533 49.457 21.74C49.327 21.6233 49.2236 21.48 49.147 21.31C49.0736 21.14 49.037 20.94 49.037 20.71C49.037 20.5133 49.0886 20.3217 49.192 20.135C49.2986 19.9483 49.472 19.7817 49.712 19.635C49.9553 19.485 50.2736 19.3617 50.667 19.265C51.0636 19.1683 51.552 19.1133 52.132 19.1V18.76C52.132 18.3933 52.0536 18.12 51.897 17.94C51.7403 17.76 51.5103 17.67 51.207 17.67C51.0003 17.67 50.827 17.6967 50.687 17.75C50.547 17.8 50.4253 17.855 50.322 17.915C50.2186 17.975 50.127 18.0317 50.047 18.085C49.967 18.135 49.882 18.16 49.792 18.16C49.7186 18.16 49.6553 18.1417 49.602 18.105C49.552 18.065 49.5103 18.0167 49.477 17.96L49.282 17.61ZM55.4513 17.845C55.6113 17.5217 55.8046 17.2683 56.0313 17.085C56.2579 16.8983 56.5296 16.805 56.8463 16.805C56.9563 16.805 57.0596 16.8183 57.1563 16.845C57.2529 16.8683 57.3396 16.905 57.4163 16.955L57.3413 17.765C57.3279 17.8217 57.3063 17.8617 57.2763 17.885C57.2496 17.905 57.2129 17.915 57.1663 17.915C57.1163 17.915 57.0446 17.9067 56.9513 17.89C56.8579 17.87 56.7596 17.86 56.6563 17.86C56.5063 17.86 56.3729 17.8817 56.2563 17.925C56.1429 17.9683 56.0396 18.0317 55.9463 18.115C55.8563 18.1983 55.7763 18.3 55.7063 18.42C55.6363 18.54 55.5713 18.6767 55.5113 18.83V22H54.4363V16.9H55.0613C55.1746 16.9 55.2529 16.9217 55.2963 16.965C55.3396 17.005 55.3696 17.0767 55.3863 17.18L55.4513 17.845ZM61.5569 17.9C61.5235 17.9433 61.4919 17.9767 61.4619 18C61.4319 18.0233 61.3885 18.035 61.3319 18.035C61.2752 18.035 61.2152 18.015 61.1519 17.975C61.0919 17.935 61.0185 17.8917 60.9319 17.845C60.8485 17.795 60.7469 17.75 60.6269 17.71C60.5069 17.67 60.3569 17.65 60.1769 17.65C59.9435 17.65 59.7385 17.6917 59.5619 17.775C59.3885 17.8583 59.2419 17.9783 59.1219 18.135C59.0052 18.2883 58.9169 18.4767 58.8569 18.7C58.8002 18.92 58.7719 19.1683 58.7719 19.445C58.7719 19.7317 58.8035 19.9867 58.8669 20.21C58.9302 20.4333 59.0202 20.6217 59.1369 20.775C59.2569 20.9283 59.4002 21.045 59.5669 21.125C59.7369 21.205 59.9269 21.245 60.1369 21.245C60.3435 21.245 60.5119 21.22 60.6419 21.17C60.7719 21.12 60.8802 21.065 60.9669 21.005C61.0535 20.945 61.1269 20.89 61.1869 20.84C61.2502 20.79 61.3169 20.765 61.3869 20.765C61.4735 20.765 61.5402 20.7983 61.5869 20.865L61.8919 21.26C61.7685 21.41 61.6319 21.5367 61.4819 21.64C61.3319 21.7433 61.1735 21.8283 61.0069 21.895C60.8402 21.9583 60.6669 22.0033 60.4869 22.03C60.3069 22.06 60.1252 22.075 59.9419 22.075C59.6252 22.075 59.3285 22.0167 59.0519 21.9C58.7785 21.78 58.5385 21.6083 58.3319 21.385C58.1285 21.1583 57.9669 20.8833 57.8469 20.56C57.7302 20.2333 57.6719 19.8617 57.6719 19.445C57.6719 19.0683 57.7252 18.72 57.8319 18.4C57.9385 18.0767 58.0935 17.7983 58.2969 17.565C58.5035 17.3317 58.7585 17.15 59.0619 17.02C59.3652 16.8867 59.7152 16.82 60.1119 16.82C60.4819 16.82 60.8069 16.88 61.0869 17C61.3702 17.12 61.6219 17.29 61.8419 17.51L61.5569 17.9ZM63.8316 17.505C64.0416 17.2983 64.2716 17.1333 64.5216 17.01C64.7716 16.8833 65.0632 16.82 65.3966 16.82C65.6766 16.82 65.9216 16.8667 66.1316 16.96C66.3449 17.0533 66.5232 17.185 66.6666 17.355C66.8132 17.525 66.9232 17.73 66.9966 17.97C67.0699 18.2067 67.1066 18.4683 67.1066 18.755V22H66.0366V18.755C66.0366 18.4117 65.9566 18.145 65.7966 17.955C65.6399 17.765 65.3999 17.67 65.0766 17.67C64.8366 17.67 64.6132 17.725 64.4066 17.835C64.2032 17.945 64.0116 18.095 63.8316 18.285V22H62.7566V14.6H63.8316V17.505ZM73.5619 19.18V22H72.3969V19.18L69.7669 14.8H70.7919C70.8952 14.8 70.9769 14.825 71.0369 14.875C71.0969 14.925 71.1469 14.9883 71.1869 15.065L72.6619 17.645C72.7285 17.775 72.7885 17.8983 72.8419 18.015C72.8985 18.1317 72.9485 18.2467 72.9919 18.36C73.0285 18.2433 73.0735 18.1283 73.1269 18.015C73.1802 17.8983 73.2402 17.775 73.3069 17.645L74.7719 15.065C74.8052 14.9983 74.8535 14.9383 74.9169 14.885C74.9802 14.8283 75.0619 14.8 75.1619 14.8H76.1919L73.5619 19.18ZM77.9108 16.82C78.2874 16.82 78.6274 16.8817 78.9308 17.005C79.2374 17.1283 79.4974 17.3033 79.7108 17.53C79.9274 17.7567 80.0941 18.0317 80.2108 18.355C80.3274 18.6783 80.3858 19.0417 80.3858 19.445C80.3858 19.8483 80.3274 20.2117 80.2108 20.535C80.0941 20.8583 79.9274 21.135 79.7108 21.365C79.4974 21.5917 79.2374 21.7667 78.9308 21.89C78.6274 22.0133 78.2874 22.075 77.9108 22.075C77.5308 22.075 77.1874 22.0133 76.8808 21.89C76.5774 21.7667 76.3174 21.5917 76.1008 21.365C75.8841 21.135 75.7174 20.8583 75.6008 20.535C75.4841 20.2117 75.4258 19.8483 75.4258 19.445C75.4258 19.0417 75.4841 18.6783 75.6008 18.355C75.7174 18.0317 75.8841 17.7567 76.1008 17.53C76.3174 17.3033 76.5774 17.1283 76.8808 17.005C77.1874 16.8817 77.5308 16.82 77.9108 16.82ZM77.9108 21.235C78.3708 21.235 78.7124 21.0817 78.9358 20.775C79.1624 20.465 79.2758 20.0233 79.2758 19.45C79.2758 18.8767 79.1624 18.435 78.9358 18.125C78.7124 17.8117 78.3708 17.655 77.9108 17.655C77.4441 17.655 77.0974 17.8117 76.8708 18.125C76.6441 18.435 76.5308 18.8767 76.5308 19.45C76.5308 20.0233 76.6441 20.465 76.8708 20.775C77.0974 21.0817 77.4441 21.235 77.9108 21.235ZM85.7187 16.9V22H85.0687C84.9253 22 84.8337 21.9317 84.7937 21.795L84.7137 21.32C84.607 21.4333 84.4937 21.5367 84.3737 21.63C84.257 21.7233 84.132 21.8033 83.9987 21.87C83.8653 21.9367 83.722 21.9883 83.5687 22.025C83.4187 22.0617 83.257 22.08 83.0837 22.08C82.8037 22.08 82.557 22.0333 82.3437 21.94C82.1303 21.8467 81.9503 21.715 81.8037 21.545C81.6603 21.375 81.552 21.1717 81.4787 20.935C81.4053 20.695 81.3687 20.4317 81.3687 20.145V16.9H82.4437V20.145C82.4437 20.4883 82.522 20.755 82.6787 20.945C82.8387 21.135 83.0803 21.23 83.4037 21.23C83.6403 21.23 83.8603 21.1767 84.0637 21.07C84.2703 20.96 84.4637 20.81 84.6437 20.62V16.9H85.7187ZM88.0391 17.845C88.1991 17.5217 88.3925 17.2683 88.6191 17.085C88.8458 16.8983 89.1175 16.805 89.4341 16.805C89.5441 16.805 89.6475 16.8183 89.7441 16.845C89.8408 16.8683 89.9275 16.905 90.0041 16.955L89.9291 17.765C89.9158 17.8217 89.8941 17.8617 89.8641 17.885C89.8375 17.905 89.8008 17.915 89.7541 17.915C89.7041 17.915 89.6325 17.9067 89.5391 17.89C89.4458 17.87 89.3475 17.86 89.2441 17.86C89.0941 17.86 88.9608 17.8817 88.8441 17.925C88.7308 17.9683 88.6275 18.0317 88.5341 18.115C88.4441 18.1983 88.3641 18.3 88.2941 18.42C88.2241 18.54 88.1591 18.6767 88.0991 18.83V22H87.0241V16.9H87.6491C87.7625 16.9 87.8408 16.9217 87.8841 16.965C87.9275 17.005 87.9575 17.0767 87.9741 17.18L88.0391 17.845ZM98.1909 20.395C98.2543 20.395 98.3093 20.42 98.3559 20.47L98.8209 20.975C98.5276 21.3283 98.1676 21.6017 97.7409 21.795C97.3143 21.985 96.8043 22.08 96.2109 22.08C95.6843 22.08 95.2076 21.99 94.7809 21.81C94.3576 21.6267 93.9959 21.3733 93.6959 21.05C93.3959 20.7233 93.1643 20.335 93.0009 19.885C92.8409 19.435 92.7609 18.94 92.7609 18.4C92.7609 17.86 92.8459 17.365 93.0159 16.915C93.1893 16.4617 93.4309 16.0733 93.7409 15.75C94.0543 15.4233 94.4276 15.17 94.8609 14.99C95.2976 14.81 95.7776 14.72 96.3009 14.72C96.8209 14.72 97.2793 14.805 97.6759 14.975C98.0759 15.1417 98.4226 15.365 98.7159 15.645L98.3309 16.19C98.3043 16.2267 98.2726 16.2583 98.2359 16.285C98.1993 16.3117 98.1493 16.325 98.0859 16.325C98.0193 16.325 97.9426 16.295 97.8559 16.235C97.7726 16.1717 97.6643 16.1033 97.5309 16.03C97.4009 15.9533 97.2359 15.885 97.0359 15.825C96.8393 15.7617 96.5926 15.73 96.2959 15.73C95.9526 15.73 95.6376 15.79 95.3509 15.91C95.0643 16.03 94.8176 16.205 94.6109 16.435C94.4043 16.665 94.2426 16.945 94.1259 17.275C94.0126 17.605 93.9559 17.98 93.9559 18.4C93.9559 18.8233 94.0159 19.2017 94.1359 19.535C94.2559 19.865 94.4209 20.145 94.6309 20.375C94.8409 20.6017 95.0876 20.775 95.3709 20.895C95.6543 21.015 95.9593 21.075 96.2859 21.075C96.4859 21.075 96.6643 21.065 96.8209 21.045C96.9809 21.0217 97.1276 20.9867 97.2609 20.94C97.3943 20.89 97.5193 20.8283 97.6359 20.755C97.7559 20.6817 97.8743 20.5917 97.9909 20.485C98.0576 20.425 98.1243 20.395 98.1909 20.395ZM101.729 16.82C102.106 16.82 102.446 16.8817 102.749 17.005C103.056 17.1283 103.316 17.3033 103.529 17.53C103.746 17.7567 103.912 18.0317 104.029 18.355C104.146 18.6783 104.204 19.0417 104.204 19.445C104.204 19.8483 104.146 20.2117 104.029 20.535C103.912 20.8583 103.746 21.135 103.529 21.365C103.316 21.5917 103.056 21.7667 102.749 21.89C102.446 22.0133 102.106 22.075 101.729 22.075C101.349 22.075 101.006 22.0133 100.699 21.89C100.396 21.7667 100.136 21.5917 99.9191 21.365C99.7025 21.135 99.5358 20.8583 99.4191 20.535C99.3025 20.2117 99.2441 19.8483 99.2441 19.445C99.2441 19.0417 99.3025 18.6783 99.4191 18.355C99.5358 18.0317 99.7025 17.7567 99.9191 17.53C100.136 17.3033 100.396 17.1283 100.699 17.005C101.006 16.8817 101.349 16.82 101.729 16.82ZM101.729 21.235C102.189 21.235 102.531 21.0817 102.754 20.775C102.981 20.465 103.094 20.0233 103.094 19.45C103.094 18.8767 102.981 18.435 102.754 18.125C102.531 17.8117 102.189 17.655 101.729 17.655C101.262 17.655 100.916 17.8117 100.689 18.125C100.462 18.435 100.349 18.8767 100.349 19.45C100.349 20.0233 100.462 20.465 100.689 20.775C100.916 21.0817 101.262 21.235 101.729 21.235ZM106.357 16.9V22H105.282V16.9H106.357ZM106.537 15.36C106.537 15.4567 106.517 15.5483 106.477 15.635C106.44 15.7217 106.389 15.7983 106.322 15.865C106.255 15.9283 106.177 15.98 106.087 16.02C106 16.0567 105.907 16.075 105.807 16.075C105.71 16.075 105.619 16.0567 105.532 16.02C105.449 15.98 105.375 15.9283 105.312 15.865C105.249 15.7983 105.197 15.7217 105.157 15.635C105.12 15.5483 105.102 15.4567 105.102 15.36C105.102 15.26 105.12 15.1667 105.157 15.08C105.197 14.9933 105.249 14.9183 105.312 14.855C105.375 14.7883 105.449 14.7367 105.532 14.7C105.619 14.66 105.71 14.64 105.807 14.64C105.907 14.64 106 14.66 106.087 14.7C106.177 14.7367 106.255 14.7883 106.322 14.855C106.389 14.9183 106.44 14.9933 106.477 15.08C106.517 15.1667 106.537 15.26 106.537 15.36ZM108.713 17.575C108.823 17.4617 108.936 17.36 109.053 17.27C109.173 17.1767 109.299 17.0967 109.433 17.03C109.566 16.9633 109.708 16.9117 109.858 16.875C110.008 16.8383 110.171 16.82 110.348 16.82C110.628 16.82 110.873 16.8667 111.083 16.96C111.296 17.0533 111.474 17.185 111.618 17.355C111.764 17.525 111.874 17.73 111.948 17.97C112.021 18.2067 112.058 18.4683 112.058 18.755V22H110.988V18.755C110.988 18.4117 110.908 18.145 110.748 17.955C110.591 17.765 110.351 17.67 110.028 17.67C109.788 17.67 109.564 17.725 109.358 17.835C109.154 17.945 108.963 18.095 108.783 18.285V22H107.708V16.9H108.358C108.504 16.9 108.598 16.9683 108.638 17.105L108.713 17.575ZM113.148 21.38C113.148 21.2833 113.165 21.1933 113.198 21.11C113.235 21.0233 113.283 20.9483 113.343 20.885C113.407 20.8217 113.48 20.7717 113.563 20.735C113.65 20.6983 113.742 20.68 113.838 20.68C113.935 20.68 114.025 20.6983 114.108 20.735C114.195 20.7717 114.27 20.8217 114.333 20.885C114.397 20.9483 114.447 21.0233 114.483 21.11C114.52 21.1933 114.538 21.2833 114.538 21.38C114.538 21.48 114.52 21.5717 114.483 21.655C114.447 21.7383 114.397 21.8117 114.333 21.875C114.27 21.9383 114.195 21.9867 114.108 22.02C114.025 22.0567 113.935 22.075 113.838 22.075C113.742 22.075 113.65 22.0567 113.563 22.02C113.48 21.9867 113.407 21.9383 113.343 21.875C113.283 21.8117 113.235 21.7383 113.198 21.655C113.165 21.5717 113.148 21.48 113.148 21.38Z" fill="#8D8986"/>
<path d="M26.9146 24.0897L22.8477 20.0228C23.619 19.0705 24.0833 17.8598 24.0833 16.5417C24.0833 13.486 21.5973 11 18.5417 11C15.486 11 13 13.486 13 16.5417C13 19.5974 15.486 22.0834 18.5417 22.0834C19.8598 22.0834 21.0705 21.619 22.0228 20.8477L26.0897 24.9146C26.2036 25.0285 26.3883 25.0285 26.5022 24.9146L26.9146 24.5022C27.0285 24.3883 27.0285 24.2036 26.9146 24.0897ZM18.5417 20.9167C16.1292 20.9167 14.1667 18.9542 14.1667 16.5417C14.1667 14.1292 16.1292 12.1667 18.5417 12.1667C20.9542 12.1667 22.9167 14.1292 22.9167 16.5417C22.9167 18.9542 20.9542 20.9167 18.5417 20.9167Z" fill="#726D6A"/>
</svg>
