<svg width="172" height="20" viewBox="0 0 172 20" fill="none" xmlns="http://www.w3.org/2000/svg">
<path d="M149.888 9.50047C149.888 6.35181 152.44 3.79932 155.589 3.79932L165.737 3.79932C168.886 3.79932 171.438 6.35181 171.438 9.50047C171.438 12.6491 168.886 15.2016 165.737 15.2016L155.589 15.2016C152.44 15.2016 149.888 12.6491 149.888 9.50047Z" fill="black" fill-opacity="0.3" stroke="#D3A630"/>
<circle cx="166.683" cy="9.50113" r="1.01724" stroke="#D3A630" stroke-width="2"/>
<path d="M37.468 5.642C37.4167 5.726 37.363 5.789 37.307 5.831C37.251 5.86833 37.181 5.887 37.097 5.887C37.0083 5.887 36.908 5.84967 36.796 5.775C36.6887 5.70033 36.5533 5.61867 36.39 5.53C36.2313 5.43667 36.0423 5.35267 35.823 5.278C35.6037 5.19867 35.3423 5.159 35.039 5.159C34.759 5.159 34.5117 5.194 34.297 5.264C34.087 5.334 33.9097 5.432 33.765 5.558C33.6203 5.684 33.5107 5.83333 33.436 6.006C33.366 6.174 33.331 6.35833 33.331 6.559C33.331 6.81567 33.3987 7.03033 33.534 7.203C33.6693 7.371 33.8467 7.51567 34.066 7.637C34.29 7.75833 34.5443 7.86567 34.829 7.959C35.1137 8.04767 35.403 8.14333 35.697 8.246C35.9957 8.34867 36.2873 8.46533 36.572 8.596C36.8567 8.72667 37.1087 8.89233 37.328 9.093C37.552 9.29367 37.7317 9.53867 37.867 9.828C38.0023 10.1173 38.07 10.4697 38.07 10.885C38.07 11.333 37.993 11.753 37.839 12.145C37.685 12.537 37.461 12.88 37.167 13.174C36.8777 13.4633 36.5183 13.692 36.089 13.86C35.6643 14.028 35.179 14.112 34.633 14.112C34.311 14.112 33.996 14.0793 33.688 14.014C33.3847 13.9533 33.093 13.867 32.813 13.755C32.5377 13.6383 32.2787 13.4983 32.036 13.335C31.7933 13.1717 31.5763 12.9897 31.385 12.789L31.861 12.005C31.903 11.9397 31.9567 11.8883 32.022 11.851C32.0873 11.8137 32.1597 11.795 32.239 11.795C32.3463 11.795 32.4653 11.8463 32.596 11.949C32.7267 12.047 32.883 12.1567 33.065 12.278C33.2517 12.3947 33.4757 12.5043 33.737 12.607C33.9983 12.705 34.311 12.754 34.675 12.754C35.2677 12.754 35.725 12.6093 36.047 12.32C36.3737 12.0307 36.537 11.6317 36.537 11.123C36.537 10.8383 36.4693 10.6073 36.334 10.43C36.1987 10.248 36.019 10.0963 35.795 9.975C35.5757 9.85367 35.3237 9.751 35.039 9.667C34.7543 9.583 34.465 9.49433 34.171 9.401C33.877 9.303 33.5877 9.191 33.303 9.065C33.0183 8.93433 32.764 8.76633 32.54 8.561C32.3207 8.351 32.1433 8.09433 32.008 7.791C31.8727 7.483 31.805 7.10033 31.805 6.643C31.805 6.279 31.875 5.92667 32.015 5.586C32.1597 5.24533 32.3673 4.94433 32.638 4.683C32.9133 4.417 33.2517 4.20467 33.653 4.046C34.0543 3.88733 34.5117 3.808 35.025 3.808C35.6037 3.808 36.1333 3.899 36.614 4.081C37.0993 4.263 37.517 4.522 37.867 4.858L37.468 5.642ZM45.5391 6.86L41.6051 16.03C41.5538 16.1373 41.4908 16.2213 41.4161 16.282C41.3461 16.3427 41.2364 16.373 41.0871 16.373H39.9741L41.2901 13.517L38.3781 6.86H39.6871C39.8131 6.86 39.9088 6.89033 39.9741 6.951C40.0441 7.007 40.0954 7.07467 40.1281 7.154L41.8291 11.207C41.8711 11.3237 41.9084 11.4403 41.9411 11.557C41.9784 11.669 42.0134 11.7857 42.0461 11.907C42.0834 11.7857 42.1208 11.6667 42.1581 11.55C42.1954 11.4333 42.2374 11.3167 42.2841 11.2L43.9151 7.154C43.9478 7.07 44.0014 7 44.0761 6.944C44.1554 6.888 44.2418 6.86 44.3351 6.86H45.5391ZM47.9256 7.805C48.0796 7.64633 48.2382 7.504 48.4016 7.378C48.5696 7.24733 48.7469 7.13533 48.9336 7.042C49.1202 6.94867 49.3186 6.87633 49.5286 6.825C49.7386 6.77367 49.9672 6.748 50.2146 6.748C50.6066 6.748 50.9496 6.81333 51.2436 6.944C51.5422 7.07467 51.7919 7.259 51.9926 7.497C52.1979 7.735 52.3519 8.022 52.4546 8.358C52.5572 8.68933 52.6086 9.05567 52.6086 9.457V14H51.1106V9.457C51.1106 8.97633 50.9986 8.603 50.7746 8.337C50.5552 8.071 50.2192 7.938 49.7666 7.938C49.4306 7.938 49.1179 8.015 48.8286 8.169C48.5439 8.323 48.2756 8.533 48.0236 8.799V14H46.5186V6.86H47.4286C47.6339 6.86 47.7646 6.95567 47.8206 7.147L47.9256 7.805ZM59.4132 8.26C59.3666 8.32067 59.3222 8.36733 59.2802 8.4C59.2382 8.43267 59.1776 8.449 59.0982 8.449C59.0189 8.449 58.9349 8.421 58.8462 8.365C58.7622 8.309 58.6596 8.24833 58.5382 8.183C58.4216 8.113 58.2792 8.05 58.1112 7.994C57.9432 7.938 57.7332 7.91 57.4812 7.91C57.1546 7.91 56.8676 7.96833 56.6202 8.085C56.3776 8.20167 56.1722 8.36967 56.0042 8.589C55.8409 8.80367 55.7172 9.06733 55.6332 9.38C55.5539 9.688 55.5142 10.0357 55.5142 10.423C55.5142 10.8243 55.5586 11.1813 55.6472 11.494C55.7359 11.8067 55.8619 12.0703 56.0252 12.285C56.1932 12.4997 56.3939 12.663 56.6272 12.775C56.8652 12.887 57.1312 12.943 57.4252 12.943C57.7146 12.943 57.9502 12.908 58.1322 12.838C58.3142 12.768 58.4659 12.691 58.5872 12.607C58.7086 12.523 58.8112 12.446 58.8952 12.376C58.9839 12.306 59.0772 12.271 59.1752 12.271C59.2966 12.271 59.3899 12.3177 59.4552 12.411L59.8822 12.964C59.7096 13.174 59.5182 13.3513 59.3082 13.496C59.0982 13.6407 58.8766 13.7597 58.6432 13.853C58.4099 13.9417 58.1672 14.0047 57.9152 14.042C57.6632 14.084 57.4089 14.105 57.1522 14.105C56.7089 14.105 56.2936 14.0233 55.9062 13.86C55.5236 13.692 55.1876 13.4517 54.8982 13.139C54.6136 12.8217 54.3872 12.4367 54.2192 11.984C54.0559 11.5267 53.9742 11.0063 53.9742 10.423C53.9742 9.89567 54.0489 9.408 54.1982 8.96C54.3476 8.50733 54.5646 8.11767 54.8492 7.791C55.1386 7.46433 55.4956 7.21 55.9202 7.028C56.3449 6.84133 56.8349 6.748 57.3902 6.748C57.9082 6.748 58.3632 6.832 58.7552 7C59.1519 7.168 59.5042 7.406 59.8122 7.714L59.4132 8.26ZM62.5978 7.707C62.8918 7.41767 63.2138 7.18667 63.5638 7.014C63.9138 6.83667 64.3221 6.748 64.7888 6.748C65.1808 6.748 65.5238 6.81333 65.8178 6.944C66.1164 7.07467 66.3661 7.259 66.5668 7.497C66.7721 7.735 66.9261 8.022 67.0288 8.358C67.1314 8.68933 67.1828 9.05567 67.1828 9.457V14H65.6848V9.457C65.6848 8.97633 65.5728 8.603 65.3488 8.337C65.1294 8.071 64.7934 7.938 64.3408 7.938C64.0048 7.938 63.6921 8.015 63.4028 8.169C63.1181 8.323 62.8498 8.533 62.5978 8.799V14H61.0928V3.64H62.5978V7.707ZM70.3614 8.183C70.5854 7.73033 70.8561 7.37567 71.1734 7.119C71.4908 6.85767 71.8711 6.727 72.3144 6.727C72.4684 6.727 72.6131 6.74567 72.7484 6.783C72.8838 6.81567 73.0051 6.867 73.1124 6.937L73.0074 8.071C72.9888 8.15033 72.9584 8.20633 72.9164 8.239C72.8791 8.267 72.8278 8.281 72.7624 8.281C72.6924 8.281 72.5921 8.26933 72.4614 8.246C72.3308 8.218 72.1931 8.204 72.0484 8.204C71.8384 8.204 71.6518 8.23433 71.4884 8.295C71.3298 8.35567 71.1851 8.44433 71.0544 8.561C70.9284 8.67767 70.8164 8.82 70.7184 8.988C70.6204 9.156 70.5294 9.34733 70.4454 9.562V14H68.9404V6.86H69.8154C69.9741 6.86 70.0838 6.89033 70.1444 6.951C70.2051 7.007 70.2471 7.10733 70.2704 7.252L70.3614 8.183ZM76.9493 6.748C77.4766 6.748 77.9526 6.83433 78.3773 7.007C78.8066 7.17967 79.1706 7.42467 79.4693 7.742C79.7726 8.05933 80.006 8.44433 80.1693 8.897C80.3326 9.34967 80.4143 9.85833 80.4143 10.423C80.4143 10.9877 80.3326 11.4963 80.1693 11.949C80.006 12.4017 79.7726 12.789 79.4693 13.111C79.1706 13.4283 78.8066 13.6733 78.3773 13.846C77.9526 14.0187 77.4766 14.105 76.9493 14.105C76.4173 14.105 75.9366 14.0187 75.5073 13.846C75.0826 13.6733 74.7186 13.4283 74.4153 13.111C74.112 12.789 73.8786 12.4017 73.7153 11.949C73.552 11.4963 73.4703 10.9877 73.4703 10.423C73.4703 9.85833 73.552 9.34967 73.7153 8.897C73.8786 8.44433 74.112 8.05933 74.4153 7.742C74.7186 7.42467 75.0826 7.17967 75.5073 7.007C75.9366 6.83433 76.4173 6.748 76.9493 6.748ZM76.9493 12.929C77.5933 12.929 78.0716 12.7143 78.3843 12.285C78.7016 11.851 78.8603 11.2327 78.8603 10.43C78.8603 9.62733 78.7016 9.009 78.3843 8.575C78.0716 8.13633 77.5933 7.917 76.9493 7.917C76.296 7.917 75.8106 8.13633 75.4933 8.575C75.176 9.009 75.0173 9.62733 75.0173 10.43C75.0173 11.2327 75.176 11.851 75.4933 12.285C75.8106 12.7143 76.296 12.929 76.9493 12.929ZM83.2674 7.805C83.4214 7.64633 83.58 7.504 83.7434 7.378C83.9114 7.24733 84.0887 7.13533 84.2754 7.042C84.462 6.94867 84.6604 6.87633 84.8704 6.825C85.0804 6.77367 85.309 6.748 85.5564 6.748C85.9484 6.748 86.2914 6.81333 86.5854 6.944C86.884 7.07467 87.1337 7.259 87.3344 7.497C87.5397 7.735 87.6937 8.022 87.7964 8.358C87.899 8.68933 87.9504 9.05567 87.9504 9.457V14H86.4524V9.457C86.4524 8.97633 86.3404 8.603 86.1164 8.337C85.897 8.071 85.561 7.938 85.1084 7.938C84.7724 7.938 84.4597 8.015 84.1704 8.169C83.8857 8.323 83.6174 8.533 83.3654 8.799V14H81.8604V6.86H82.7704C82.9757 6.86 83.1064 6.95567 83.1624 7.147L83.2674 7.805ZM91.276 6.86V14H89.771V6.86H91.276ZM91.528 4.704C91.528 4.83933 91.5 4.96767 91.444 5.089C91.3927 5.21033 91.3203 5.31767 91.227 5.411C91.1337 5.49967 91.024 5.572 90.898 5.628C90.7767 5.67933 90.646 5.705 90.506 5.705C90.3707 5.705 90.2423 5.67933 90.121 5.628C90.0043 5.572 89.9017 5.49967 89.813 5.411C89.7243 5.31767 89.652 5.21033 89.596 5.089C89.5447 4.96767 89.519 4.83933 89.519 4.704C89.519 4.564 89.5447 4.43333 89.596 4.312C89.652 4.19067 89.7243 4.08567 89.813 3.997C89.9017 3.90367 90.0043 3.83133 90.121 3.78C90.2423 3.724 90.3707 3.696 90.506 3.696C90.646 3.696 90.7767 3.724 90.898 3.78C91.024 3.83133 91.1337 3.90367 91.227 3.997C91.3203 4.08567 91.3927 4.19067 91.444 4.312C91.5 4.43333 91.528 4.564 91.528 4.704ZM98.2 7.49C98.2 7.59733 98.1813 7.70233 98.144 7.805C98.1113 7.90767 98.0623 7.994 97.997 8.064L94.378 12.831H98.081V14H92.635V13.37C92.635 13.3 92.6513 13.216 92.684 13.118C92.7167 13.02 92.7657 12.9267 92.831 12.838L96.478 8.029H92.845V6.86H98.2V7.49ZM104.112 9.625C104.112 9.373 104.074 9.13967 104 8.925C103.93 8.70567 103.825 8.51667 103.685 8.358C103.545 8.19467 103.37 8.06867 103.16 7.98C102.954 7.88667 102.716 7.84 102.446 7.84C101.9 7.84 101.47 7.99633 101.158 8.309C100.845 8.62167 100.647 9.06033 100.563 9.625H104.112ZM100.521 10.549C100.539 10.955 100.602 11.3073 100.71 11.606C100.817 11.9 100.959 12.145 101.137 12.341C101.319 12.537 101.533 12.684 101.781 12.782C102.033 12.8753 102.313 12.922 102.621 12.922C102.915 12.922 103.169 12.8893 103.384 12.824C103.598 12.754 103.785 12.6793 103.944 12.6C104.102 12.516 104.238 12.4413 104.35 12.376C104.462 12.306 104.564 12.271 104.658 12.271C104.779 12.271 104.872 12.3177 104.938 12.411L105.365 12.964C105.187 13.174 104.987 13.3513 104.763 13.496C104.539 13.6407 104.301 13.7597 104.049 13.853C103.797 13.9417 103.538 14.0047 103.272 14.042C103.006 14.084 102.747 14.105 102.495 14.105C102 14.105 101.54 14.0233 101.116 13.86C100.696 13.692 100.329 13.447 100.017 13.125C99.7087 12.803 99.4661 12.404 99.2887 11.928C99.1161 11.452 99.0297 10.9037 99.0297 10.283C99.0297 9.78833 99.1067 9.32633 99.2607 8.897C99.4194 8.46767 99.6434 8.09433 99.9327 7.777C100.227 7.45967 100.581 7.21 100.997 7.028C101.417 6.84133 101.89 6.748 102.418 6.748C102.856 6.748 103.262 6.82033 103.636 6.965C104.009 7.105 104.331 7.31267 104.602 7.588C104.872 7.86333 105.082 8.20167 105.232 8.603C105.386 8.99967 105.463 9.45233 105.463 9.961C105.463 10.1943 105.437 10.3507 105.386 10.43C105.334 10.5093 105.241 10.549 105.106 10.549H100.521ZM111.423 8.617C111.213 8.34633 110.982 8.15733 110.73 8.05C110.478 7.94267 110.205 7.889 109.911 7.889C109.323 7.889 108.864 8.106 108.532 8.54C108.201 8.96933 108.035 9.60633 108.035 10.451C108.035 10.8897 108.073 11.2653 108.147 11.578C108.222 11.886 108.329 12.138 108.469 12.334C108.609 12.53 108.78 12.6723 108.98 12.761C109.181 12.8497 109.407 12.894 109.659 12.894C110.042 12.894 110.371 12.8123 110.646 12.649C110.926 12.481 111.185 12.2453 111.423 11.942V8.617ZM112.928 3.64V14H112.018C111.818 14 111.689 13.9043 111.633 13.713L111.5 12.936C111.202 13.286 110.861 13.5683 110.478 13.783C110.1 13.9977 109.659 14.105 109.155 14.105C108.754 14.105 108.39 14.0257 108.063 13.867C107.737 13.7037 107.457 13.468 107.223 13.16C106.99 12.852 106.808 12.4717 106.677 12.019C106.551 11.5617 106.488 11.039 106.488 10.451C106.488 9.919 106.558 9.42667 106.698 8.974C106.843 8.52133 107.048 8.12933 107.314 7.798C107.58 7.462 107.902 7.20067 108.28 7.014C108.663 6.82267 109.09 6.727 109.561 6.727C109.981 6.727 110.338 6.79467 110.632 6.93C110.926 7.06067 111.19 7.245 111.423 7.483V3.64H112.928Z" fill="#F5CEA3"/>
<path d="M19.75 10C19.75 15.3848 15.3848 19.75 10 19.75C4.61522 19.75 0.25 15.3848 0.25 10C0.25 4.61522 4.61522 0.25 10 0.25C15.3848 0.25 19.75 4.61522 19.75 10Z" stroke="#D3A630" stroke-width="0.5"/>
<path d="M6.8502 9.39402L6.85008 9.3939C6.68267 9.22649 6.45561 9.13244 6.21886 9.13244C5.9821 9.13244 5.75504 9.22649 5.58763 9.3939C5.42022 9.56131 5.32617 9.78837 5.32617 10.0251C5.32617 10.2619 5.42022 10.4889 5.58763 10.6563L8.09138 13.1561C8.0914 13.1561 8.09142 13.1561 8.09144 13.1561C8.09146 13.1562 8.09147 13.1562 8.09149 13.1562C8.25925 13.3234 8.48647 13.4173 8.72336 13.4173C8.96029 13.4173 9.18756 13.3234 9.35533 13.1561L14.408 8.10945L6.8502 9.39402ZM6.8502 9.39402L8.3422 10.884L8.34299 10.8848M6.8502 9.39402L8.34299 10.8848M8.34299 10.8848C8.4441 10.9849 8.58061 11.041 8.72286 11.041C8.86511 11.041 9.00161 10.9849 9.10272 10.8848L9.10352 10.884M8.34299 10.8848L9.10352 10.884M9.10352 10.884L13.1445 6.84801L13.1447 6.84779M9.10352 10.884L13.1447 6.84779M13.1447 6.84779C13.2276 6.76484 13.326 6.69903 13.4342 6.6541M13.1447 6.84779L13.4342 6.6541M13.4342 6.6541C13.5425 6.60917 13.6586 6.58601 13.7758 6.58594M13.4342 6.6541L13.7758 6.58594M13.7758 6.58594C13.893 6.58587 14.0091 6.60888 14.1175 6.65368M13.7758 6.58594L14.1175 6.65368M14.1175 6.65368C14.2258 6.69847 14.3242 6.76417 14.4072 6.84701M14.1175 6.65368L14.4072 6.84701M14.4072 6.84701C14.4901 6.92985 14.5559 7.02822 14.6009 7.1365M14.4072 6.84701L14.6009 7.1365M14.6009 7.1365C14.6458 7.24477 14.669 7.36084 14.669 7.47807M14.6009 7.1365L14.669 7.47807M14.669 7.47807C14.6691 7.5953 14.6461 7.71139 14.6013 7.81973M14.669 7.47807L14.6013 7.81973M14.6013 7.81973C14.5565 7.92797 14.4909 8.02634 14.4082 8.10924L14.6013 7.81973Z" fill="#D3A630" stroke="#0A1018" stroke-width="0.5"/>
<line x1="131.5" y1="3" x2="131.5" y2="16" stroke="#403D3A"/>
</svg>
